<svg xmlns="http://www.w3.org/2000/svg" xmlns:xlink="http://www.w3.org/1999/xlink" viewBox="0 0 806.9 548.9"><defs><style>.cls-1{fill:#b3c734}</style><linearGradient id="linear-gradient" x1="194.6" y1="266.6" x2="261.3" y2="266.6" gradientTransform="matrix(-1, 0, 0, 1, 467.15, 0)" gradientUnits="userSpaceOnUse"><stop offset="0" stop-color="#f7a621"/><stop offset="1" stop-color="#e84826"/></linearGradient><linearGradient id="linear-gradient-2" x1="199.1" y1="431" x2="340.2" y2="431" gradientTransform="matrix(1, 0, 0, 1, 0, 0)" xlink:href="#linear-gradient"/><linearGradient id="linear-gradient-3" x1="130" y1="421.9" x2="240.5" y2="421.9" gradientTransform="matrix(1, 0, 0, 1, 0, 0)" xlink:href="#linear-gradient"/><linearGradient id="linear-gradient-4" x1="210.1" y1="297.3" x2="362.6" y2="297.3" gradientTransform="matrix(1, 0, 0, 1, 0, 0)" xlink:href="#linear-gradient"/><linearGradient id="linear-gradient-5" x1="247" y1="360.5" x2="287.4" y2="360.5" gradientTransform="matrix(1, 0, 0, 1, 0, 0)" xlink:href="#linear-gradient"/></defs><g id="Layer_2" data-name="Layer 2"><g id="Layer_1-2" data-name="Layer 1"><path class="cls-1" d="M359.2 512.4c10-1.1 16.3-6.3 16.3-14v-108c0-10.7 0-13-16.7-16.4v-5.6h17.6c20.3 0 25.3-1 25.3-1l1.1 1s-7.4 8.6-7.4 27.3v102.7a57.5 57.5 0 0 1-1.2 11.5l21.5 2-1 6.3-55.5 1.4zM432 436c-4.6-11.4-12.5-13-12.5-13v-5.6H430c14.2 0 22.6-1 22.6-1l.9 1c-2.7 6-2.7 14-.2 20.7l17.1 47.6c1.4 4.1 3 9.8 4 14l26.7-60.2c4.3-10-2.7-14.5-11.3-16.5v-5.6h30.5l1.1 3.6s-3.4 1.3-8.1 11.7L473.7 522l-9.5-3zm99.3 76.4c10.1-1.1 16.2-5.9 16.2-14v-108c0-10.7-1.1-13-18.5-16.4v-5.6h61.9c43.7 0 86 16.5 86 69.7 0 51-38.2 80.8-94.6 80.8H564c-11.3 0-32.7.7-32.7.7zm51-2.3c52.8 0 72.2-29.3 72.2-66.8 0-40-22.4-66.1-64.6-66.1h-20.3l-2.2 2.2v118a75 75 0 0 1-1.2 12.7zm115.5 2.3c10-1.1 16.3-6.3 16.3-14v-108c0-10.7-1.1-13-18.5-16.4v-5.6h56c26 0 55.3 8.3 55.3 41.5 0 36.4-34.1 48.3-58.5 45.8v-6.3c26.2-.7 36.4-17 36.4-34.7 0-27.1-21.3-37.5-45.2-37.5h-3.4l-2.2 2.2v119a57.5 57.5 0 0 1-1.1 11.5l21.4 2-.9 6.4-55.5 1.3z"/><circle cx="239.2" cy="266.6" r="33.4" fill="url(#linear-gradient)"/><path d="M199.6 313a122.2 122.2 0 0 0 1.7 17.1c9.6 54.9 54.4 92.9 100.2 85a73.3 73.3 0 0 0 38.7-20.1 133.1 133.1 0 0 0-26.7 51.4c-11 40.4-3.3 80 17.4 102.6-33.4-14.2-71.2-53.5-99-106.6-24.4-47.1-35.3-94.5-32.3-129.3z" fill="url(#linear-gradient-2)"/><path class="cls-1" d="M349.3 145.7c6.2-11.8 6-29.9-2.5-39.3-9.6 18.4-25 15.7-33.2 26.6-7 9.3-5.4 17.3.9 25.4a41 41 0 0 0 20.2-14.5A52.8 52.8 0 0 1 319 162a31 31 0 0 0 30.2-16.4zm-18.6 58c2.3-8.1-.1-19.1-6.6-23.7-3.5 12.4-13.2 12.7-16.8 20.4-3.1 6.6-1 11.3 3.8 15.4a25.4 25.4 0 0 0 10.4-11.4 32.8 32.8 0 0 1-7.1 13.1 19.3 19.3 0 0 0 16.3-13.8zm75.2 83.7c6.7-10 8.4-26.1 1.6-35.4-10.4 15.5-23.8 11.6-32.3 20.5-7.2 7.7-6.5 15-1.7 22.8a36 36 0 0 0 19.5-11 47.5 47.5 0 0 1-15.7 14.8 27.9 27.9 0 0 0 28.6-11.7zm53.9-21.2c4.7-6.9 5.8-18 1.1-24.5-7.2 10.7-16.5 8-22.4 14.2-5 5.3-4.5 10.4-1.2 15.8a25.4 25.4 0 0 0 13.5-7.6c-2.9 5-9.6 9.8-10.8 10.2a19.3 19.3 0 0 0 19.8-8zm30.1-73c7.7-11.4 9.6-29.9 1.8-40.4-11.8 17.7-27.2 13.2-36.9 23.4-8.2 8.7-7.4 17-2 26a42 42 0 0 0 22.3-12.5 54.3 54.3 0 0 1-18 17 31.9 31.9 0 0 0 32.8-13.5zm-83 13.6c4.7-7 5.8-18.2 1.1-24.6-7.2 10.8-16.5 8-22.4 14.2-5 5.3-4.5 10.4-1.2 15.8a25.3 25.3 0 0 0 13.5-7.6c-2.9 5-9.6 9.8-10.8 10.3a19.3 19.3 0 0 0 19.8-8.1zm41.5-60.6c6.3-14.2 4.6-35-6-45-9.6 21.8-27.4 20-36 33.2-7.4 11.3-4.7 20.4 3.1 29.2a46.9 46.9 0 0 0 22-18.4 61 61 0 0 1-16.3 22.3 35.7 35.7 0 0 0 33.3-21.3zm49.4-34.2c3.3-7.7 2.4-18.9-3.3-24.3-5.2 11.8-14.8 10.8-19.5 18-4 6-2.5 11 1.7 15.7a25.3 25.3 0 0 0 12-9.9c-2 5.5-7.8 11.4-9 12a19.3 19.3 0 0 0 18-11.5zM468 67.8c5.3-12.3 3.8-30.2-5.4-39-8.2 19-23.7 17.4-31.2 28.9-6.3 9.8-4 17.6 2.7 25.3a40.6 40.6 0 0 0 19.1-16A52.6 52.6 0 0 1 439 86.5a31 31 0 0 0 29-18.6zm-60 32.1c3.4-7.7 2.5-18.9-3.3-24.3-5.1 11.8-14.8 10.8-19.4 18-4 6-2.6 11 1.6 15.7a25.4 25.4 0 0 0 12-9.9c-2 5.5-7.8 11.4-9 12A19.3 19.3 0 0 0 408 99.9zM140.9 218c-3.6-12.4.2-29.5 10.2-36.7 5.4 19.3 20.5 19.8 26.2 31.8 4.8 10.3 1.6 17.5-6 24a39.5 39.5 0 0 1-16.2-17.8 51.2 51.2 0 0 0 11.1 20.4A30 30 0 0 1 141 218zm28.1 61.8c-2.3-8 .1-19 6.6-23.7 3.5 12.4 13.2 12.7 16.8 20.5 3.1 6.6 1 11.2-3.8 15.3a25.4 25.4 0 0 1-10.4-11.4 33 33 0 0 0 7 13.1 19.3 19.3 0 0 1-16.2-13.8zm-76.8 85.1c-7.5-11.2-9.3-29.1-1.8-39.4 11.5 17.2 26.4 12.8 35.9 22.8 8 8.5 7.2 16.6 1.9 25.3-11-2-19.9-9.8-21.7-12.2A52.9 52.9 0 0 0 124 378a31 31 0 0 1-31.8-13zM40 342.4c-4.7-7-5.8-18.2-1.1-24.6 7.2 10.8 16.5 8 22.3 14.2 5 5.3 4.5 10.4 1.2 15.8a25.4 25.4 0 0 1-13.5-7.6c3 5 9.7 9.8 10.9 10.3a19.3 19.3 0 0 1-19.8-8.1zM9.2 270c-8.1-12-10-31.2-2-42.2 12.3 18.4 28.3 13.7 38.4 24.3 8.6 9.2 7.8 17.8 2 27.2a43.5 43.5 0 0 1-23.1-13c5 8.6 16.5 16.7 18.7 17.6a33.2 33.2 0 0 1-34-14zm83.7 12.9c-4.7-7-5.9-18.1-1.2-24.5 7.2 10.7 16.5 8 22.4 14.2 5 5.3 4.5 10.3 1.2 15.8a25.4 25.4 0 0 1-13.5-7.6c3 5 9.6 9.7 10.9 10.2a19.3 19.3 0 0 1-19.8-8.1zm-38.8-62.2c-5.4-12.3-4-30.3 5.3-39 8.3 19 23.7 17.4 31.2 28.9 6.4 9.8 4.1 17.6-2.7 25.2a40.7 40.7 0 0 1-19-15.9A53.3 53.3 0 0 0 83 239.2a31 31 0 0 1-28.9-18.5zM2 188c-3.4-7.6-2.5-18.8 3.3-24.2 5.2 11.8 14.8 10.8 19.5 18 4 6 2.5 11-1.7 15.7a25.5 25.5 0 0 1-12-9.9c2 5.5 7.8 11.4 9 12A19.3 19.3 0 0 1 2 188.2zm29.8-44c-5.4-12.3-4-30.3 5.3-39 8.3 19 23.7 17.4 31.2 28.9 6.4 9.8 4.1 17.6-2.7 25.2a40.7 40.7 0 0 1-19-15.9 52.9 52.9 0 0 0 14 19.3A31 31 0 0 1 31.9 144zm59.9 32c-3.4-7.7-2.5-18.9 3.3-24.3 5.2 11.8 14.8 10.8 19.5 18 4 6.1 2.5 11-1.7 15.7a25.4 25.4 0 0 1-12-9.9c2 5.5 7.8 11.4 9 12A19.3 19.3 0 0 1 91.6 176zm160.9 10.9c4-12.9 17-25.4 29.7-26-6.3 19.8 6.4 28.7 4.5 42.3-1.6 11.6-8.5 16-18.6 17.3a40.6 40.6 0 0 1-4-24.6 52.7 52.7 0 0 0-2 24 31 31 0 0 1-9.6-33zm43.8-97.4c3.5-7.6 12.4-14.5 20.3-14-5.3 11.9 1.9 18.3-.3 26.6-1.8 7-6.4 9.3-12.7 9.4A25.3 25.3 0 0 1 303 96a33.8 33.8 0 0 0-3 14.7 19.3 19.3 0 0 1-3.6-21.2zM201 199.9c.3-8.4 6.2-18 13.8-20.3-.7 12.9 8.3 16.3 9.3 24.8.8 7.2-2.6 11-8.6 13.3a25.4 25.4 0 0 1-6.2-14.2 32.9 32.9 0 0 0 2.6 14.8 19.3 19.3 0 0 1-11-18.4zm-26.3-61.3c-1.2-13.4 6-30 17.5-35.3 1.7 20.7 16.9 24.1 20.3 37.4 2.8 11.3-1.8 18-10.7 23a41 41 0 0 1-13-21.2c.1 9.4 5.8 21.3 7.2 22.9a31 31 0 0 1-21.3-26.8zM82.7 77c.4-8.4 6.3-18 13.9-20.3-.7 13 8.3 16.3 9.3 24.8.8 7.3-2.6 11-8.6 13.3a25.4 25.4 0 0 1-6.2-14.1 32.8 32.8 0 0 0 2.6 14.7 19.3 19.3 0 0 1-11-18.4zm28.1 53c-1.2-13.3 6-29.9 17.5-35.2 1.7 20.7 16.9 24.1 20.3 37.4 2.9 11.3-1.8 18-10.7 23a41 41 0 0 1-13-21.2c.1 9.4 5.8 21.3 7.2 22.9a31 31 0 0 1-21.3-26.8zM148 58.5c.4-8.3 6.2-18 13.8-20.2-.7 12.9 8.4 16.3 9.3 24.8.8 7.2-2.6 11-8.5 13.3a25.4 25.4 0 0 1-6.2-14.2 32.9 32.9 0 0 0 2.5 14.7 19.3 19.3 0 0 1-11-18.4zm204.2-19.9c7.3-11.2 23.1-20 35.5-17-11.3 17.3-1.4 29.3-6.9 41.9-4.7 10.7-12.4 13.1-22.5 11.7a40.6 40.6 0 0 1 2.7-24.7 53 53 0 0 0-8.3 22.5 31 31 0 0 1-.5-34.4zm-114.6 98.6c-1.3-8.3 2.4-19 9.4-22.7 2 12.7 11.5 14.2 14.2 22.3 2.3 7-.3 11.3-5.6 14.8a25.4 25.4 0 0 1-9-12.6 33 33 0 0 0 5.5 13.9 19.3 19.3 0 0 1-14.5-15.8zm-30.2-84.7c-1.2-13.4 6-30 17.5-35.2 1.7 20.6 17 24 20.3 37.3 2.9 11.4-1.8 18-10.7 23a41.1 41.1 0 0 1-13-21.1c.1 9.3 5.9 21.2 7.2 22.8a31 31 0 0 1-21.3-26.8zm104.9-21.6C312 18.4 303.8 3.8 292.7 0c.4 19.2-13.3 23.9-15.1 36.4-1.6 10.8 3.3 16.5 12 20.3 7.4-7.4 9.8-18 10-20.8.7 8.6-3.4 20.1-4.5 21.8a28.7 28.7 0 0 0 17.2-26.9z"/><path d="M191 327.6a121 121 0 0 1-61-32.6c19.4 22.5 35 51.5 44 84.7 18.3 66.6 5.4 131.8-28.6 169.2 30.7-13 63.9-39.1 95-75-8.8-12.9-47.3-72.7-49.5-146.3z" fill="url(#linear-gradient-3)"/><path d="M362.6 188a1.8 1.8 0 0 0-3.5-.3l-.1.3c-14.5 83.3-78.2 143-147 141.8a1.8 1.8 0 0 0-1.8 2.2c6.3 25 25 71.4 77.2 76.2a1.8 1.8 0 0 0 1.7-.8q10-16.5 19.3-34.3c34.2-65.6 52.3-131.5 54.2-185zm-93.4 200a27.8 27.8 0 1 1 25.5-25.4 27.8 27.8 0 0 1-25.5 25.4z" fill="url(#linear-gradient-4)"/><circle cx="267.2" cy="360.5" r="20.3" fill="url(#linear-gradient-5)"/></g></g></svg>